<svg xmlns="http://www.w3.org/2000/svg" viewBox="0 0 338 437"><path fill="none" stroke="#000" stroke-linecap="round" stroke-linejoin="round" stroke-width="13" d="M274.8 409.1s27-17.5 27.4-59.8-18.9-151-18.9-151-14-68-14.4-75.1-7.6-27.9-21.5-43.6-19-18-22.5-27.9-8.6-15.7-15.4-16.2-16.3 4.7-16.3 4.7-6.4-6.7-12.5-10.4-16.3-5-16.3-5-2.6-4.5-9.3-5.3-11.8-1-21 2.9-11-.9-26.2 25-20.6 66.2-20.6 66.2-7.8 3.5-10.5 11.1-7.4 19.7-8.6 31.2-6 45.9-6 45.9a27.1 27.1 0 0 0-15.4 5.2c-7 5.4-8.5 4.2-11 8s-.2 33 6.6 40.6 20.4 15.7 20.4 15.7-6.7 39.6-7.2 56 15.5 42 23.8 53 36.2 39.4 111.1 37.6 84.3-8.8 84.3-8.8Z"/><path fill="none" stroke="#000" stroke-linecap="round" stroke-linejoin="round" stroke-width="13" d="M282.9 196s1.6-1.4 5.2 0 9.4 5 11.6 9.9 6.5 37.6 0 46l-6.4 8.5"/><path fill="none" stroke="#000" stroke-linecap="round" stroke-linejoin="round" stroke-width="8" d="M42.6 222.8s3.6-8.6 8.5-7.8 8.3 9.3 8.5 13-12.1.7-11.9 7 3.4 9.4 3.4 9.4M113.4 264s-.3-19.2 7.8-24.6 19.2-4.3 19.2-4.3M257.7 260.5s-.5-8.7-5-10-7.4-2-11.2-6.1-8.3-9.3-8.3-9.3"/><path fill="none" stroke="#000" stroke-linecap="round" stroke-linejoin="round" stroke-width="8" d="M127.7 236.4s23.2 25 61.9 27.5 60-14.4 60-14.4M180.7 212.2s-4.4-9.9-7.8-9.6-8.7 17-9 20.2-3.3 8.7 1.4 9.9 12.6.9 14.4 1.3 9.9 5.3 23.1 2.4 14.7-4.2 13.5-11.4-10.8-27.3-10.8-32.5-1.5-48.6 4.5-61.4 7.6-18.2 23.1-18 32.7 19.3 33.3 22 6 8.9 6 8.9"/><path fill="none" stroke="#000" stroke-linecap="round" stroke-linejoin="round" stroke-width="8" d="M265.3 113s-19-20.6-25.1-22-21.6-2-23.6 5.2-3.4 28.3-3.4 28.3M89.3 182.5s17.8-26 35.5-34.6 31.3-18.2 35.8-19.5 9.8-.7 8-9.3S158 114 158 114s-34.6 9-44.7 19.8-24.5 28.5-24 40.4 0 8.3 0 8.3ZM62.2 201.8S58 264.4 59.6 267s12.4 7.8 12.4 7.8 1.3-56.8 6.5-87.9 8.8-73.4 8.8-73.4M88.3 107.3s21.3-34.2 42-45.5 22-9.9 28.7-11.5 11.7 3.9 18 3.2 3.6-5.2 14.2-5S231.9 63 231.9 63"/><path fill="none" stroke="#000" stroke-linecap="round" stroke-linejoin="round" stroke-width="8" d="M170.2 97.5s7 9.4 6.9 15.6-10.8 21.1-10.8 21.1M113.4 185s12-11.2 22.6-12.3 20.4-.1 20.5 5.4-10.2 14.1-17.2 15.3-13.6-.1-16.7-2-9.2-6.4-9.2-6.4ZM254.6 178.9s-6.3-9.5-16-10.8-17.2 1-19 4-1 13.7 5.8 15.7 15.2 5.2 22.1 0 7-9 7-9ZM89.3 237.3s-.4 16.3 1.8 26.9 8 25.4 8 25.4M281 229.6s1.5 25.2 1.9 34.3a176.4 176.4 0 0 1-1 21.2"/><path fill="none" stroke="#000" stroke-linecap="round" stroke-linejoin="round" stroke-width="6" d="M171.7 68.4a113.7 113.7 0 0 1 33.3-5.8c17.9-.3 23.7 4.4 23.7 4.4M180.7 78s19.8-5.3 31-5.3 17 1.2 17 1.2M182.8 91.1s38.7-13 50-8.9a50 50 0 0 1 18.4 12.1"/><circle cx="138.3" cy="182.3" r="10.2" fill="none" stroke="#000" stroke-linecap="round" stroke-linejoin="round" stroke-width="6"/><circle cx="230.9" cy="178.7" r="9.3" fill="none" stroke="#000" stroke-linecap="round" stroke-linejoin="round" stroke-width="6"/><path fill="none" stroke="#000" stroke-linecap="round" stroke-linejoin="round" stroke-width="6" d="M107.4 179.2s14.6-15.9 23.4-18.9 20-1.7 20-1.7M103.7 195.6s15.3 10.8 29.3 9.5 25.6-16 25.6-16M267.5 177.8s1.8 16.4-2 19.4-13.4 10.6-17.9 10.8-19.2-7.7-22.7-10.2-10.2-10.3-10.2-13.2.6-33.2 9.4-37.4 20 1 24.8 9.5a58.5 58.5 0 0 1 6.4 15.4M126.9 343.4s10.3 13.8 20.4 14.9 43.7 6.5 64.1 5 41.4-.8 48.7-13.2"/><circle cx="137.4" cy="182.3" r="4.5"/><circle cx="230.9" cy="178.7" r="4.5"/></svg>